Coordinates
version=1
nRows=22
nColumns=24
inDegrees=yes

Units are S.I. units (second, meters, Newtons, ...)
Angles are in degrees.

endheader
time	pelvis_tilt	pelvis_list	pelvis_rotation	pelvis_tx	pelvis_ty	pelvis_tz	hip_flexion_r	hip_adduction_r	hip_rotation_r	knee_angle_r	ankle_angle_r	subtalar_angle_r	mtp_angle_r	hip_flexion_l	hip_adduction_l	hip_rotation_l	knee_angle_l	ankle_angle_l	subtalar_angle_l	mtp_angle_l	lumbar_extension	lumbar_bending	lumbar_rotation
      1.90000000	      1.58193768	     -2.73159888	      5.46605336	     -0.00865608	      1.00237181	      0.06443421	      8.80791065	      4.15158645	    -19.60228209	    -15.69181400	     12.48725339	      0.00000000	      0.00000000	     18.31627613	     -6.51791678	     -4.35808703	    -68.89510659	     13.03330583	      0.00000000	      0.00000000	    -20.30923542	      5.44602921	     -1.90827897
      1.91000000	      1.40744229	     -2.55192760	      5.68384963	     -0.00979978	      1.00334273	      0.06506390	      8.19704990	      4.09111760	    -19.94792852	    -14.96954285	     12.23907227	      0.00000000	      0.00000000	     19.62391755	     -6.27526526	     -4.24359958	    -68.92645788	     13.14775013	      0.00000000	      0.00000000	    -20.16596884	      5.30549148	     -2.00571756
      1.92000000	      1.29259123	     -2.29233107	      5.73681087	     -0.01089317	      1.00431417	      0.06592758	      7.54858163	      3.98332140	    -19.96098535	    -14.32824349	     12.26966882	      0.00000000	      0.00000000	     20.70636554	     -6.03995309	     -4.36950055	    -68.61376661	     13.31147941	      0.00000000	      0.00000000	    -20.11612640	      5.02179218	     -1.96027492
      1.93000000	      1.15119711	     -2.06247742	      5.84638706	     -0.01193924	      1.00510955	      0.06666385	      6.90794011	      3.90746529	    -20.01574146	    -13.63658036	     12.22803193	      0.00000000	      0.00000000	     21.75822494	     -5.83368581	     -4.45844510	    -68.05690076	     13.53435383	      0.00000000	      0.00000000	    -20.01982208	      4.78441549	     -1.95328184
      1.94000000	      1.01320077	     -1.89168215	      5.97685241	     -0.01297398	      1.00577330	      0.06734055	      6.28742293	      3.89089826	    -20.06466954	    -12.98603407	     12.16631617	      0.00000000	      0.00000000	     22.74204329	     -5.69216809	     -4.52023587	    -67.24058969	     13.80351376	      0.00000000	      0.00000000	    -19.92622015	      4.61885385	     -1.94846055
      1.95000000	      0.85533472	     -1.72715405	      6.14668757	     -0.01394884	      1.00622420	      0.06792672	      5.60977150	      3.90890304	    -20.10936427	    -12.15867413	     12.04509172	      0.00000000	      0.00000000	     23.70690031	     -5.55192146	     -4.58526703	    -66.26895721	     14.19481568	      0.00000000	      0.00000000	    -19.79315460	      4.45451479	     -1.95892554
      1.96000000	      0.74804386	     -1.62762117	      6.29882941	     -0.01494683	      1.00659852	      0.06843782	      4.91007154	      3.99232362	    -20.14352894	    -11.36583367	     11.86498583	      0.00000000	      0.00000000	     24.55116464	     -5.48794942	     -4.61779413	    -65.07468297	     14.61901545	      0.00000000	      0.00000000	    -19.72964046	      4.37865317	     -1.96451702
      1.97000000	      0.62760738	     -1.54809323	      6.42923960	     -0.01590913	      1.00682784	      0.06898188	      4.26962603	      4.09172282	    -20.07186110	    -10.68127619	     11.85613797	      0.00000000	      0.00000000	     25.32480083	     -5.47341274	     -4.72089535	    -63.64417938	     14.93732894	      0.00000000	      0.00000000	    -19.65042920	      4.30227928	     -1.92149889
      1.98000000	      0.52853898	     -1.48814431	      6.54388218	     -0.01684005	      1.00694088	      0.06948684	      3.61689884	      4.21417928	    -19.97124817	    -10.00682470	     11.80141342	      0.00000000	      0.00000000	     25.99766676	     -5.47484277	     -4.81894183	    -61.99835305	     15.23091879	      0.00000000	      0.00000000	    -19.59132932	      4.24610079	     -1.86101057
      1.99000000	      0.47470679	     -1.43656696	      6.63083471	     -0.01772567	      1.00700100	      0.06990504	      2.91606686	      4.34400315	    -19.84356660	     -9.31620971	     11.71251606	      0.00000000	      0.00000000	     26.52322723	     -5.48988431	     -4.95251654	    -60.13505932	     15.41395054	      0.00000000	      0.00000000	    -19.58728678	      4.20568376	     -1.79892899
      2.00000000	      0.43858073	     -1.40415234	      6.70196671	     -0.01866094	      1.00697223	      0.07044107	      2.26064465	      4.49113839	    -19.69592657	     -8.75638987	     11.70652156	      0.00000000	      0.00000000	     26.96591742	     -5.54180524	     -5.09942952	    -58.06938285	     15.38610818	      0.00000000	      0.00000000	    -19.62724439	      4.15483060	     -1.70662146
      2.01000000	      0.30624248	     -1.43810362	      6.75758487	     -0.01951100	      1.00660986	      0.07081948	      1.76622461	      4.66721095	    -19.54674017	     -8.31100738	     11.85130937	      0.00000000	      0.00000000	     27.45536381	     -5.63090611	     -5.26971443	    -55.85882377	     15.20386738	      0.00000000	      0.00000000	    -19.52394733	      4.18599540	     -1.61778169
      2.02000000	      0.18585685	     -1.62999740	      6.83169365	     -0.02048546	      1.00604720	      0.07110560	      1.43303925	      4.96175340	    -19.46569959	     -8.20586743	     12.00388523	      0.00000000	      0.00000000	     27.93058691	     -5.82274739	     -5.24982012	    -53.55417908	     15.04182449	      0.00000000	      0.00000000	    -19.44918224	      4.39956078	     -1.48837877
      2.03000000	      0.24390302	     -1.41986507	      6.72535188	     -0.02114487	      1.00598052	      0.07164156	      0.67726321	      4.90838183	    -19.20325699	     -7.68973035	     12.10590879	      0.00000000	      0.00000000	     27.84574845	     -5.74180038	     -5.71125545	    -50.71935752	     14.23233210	      0.00000000	      0.00000000	    -19.61622469	      4.11426208	     -1.35629326
      2.04000000	      0.07535367	     -1.71389275	      6.79365507	     -0.02194475	      1.00505979	      0.07184361	      0.42448219	      5.29989741	    -19.13930765	     -7.61542695	     12.30994577	      0.00000000	      0.00000000	     28.24257242	     -6.00029992	     -5.67653212	    -48.13249377	     13.97109458	      0.00000000	      0.00000000	    -19.46040733	      4.42637273	     -1.24691905
      2.05000000	     -0.17810334	     -1.69452075	      6.74450343	     -0.02246393	      1.00413666	      0.07230535	      0.11681275	      5.38915226	    -18.99054929	     -7.30530835	     12.51555489	      0.00000000	      0.00000000	     28.45142207	     -6.04128305	     -6.11696330	    -45.12428653	     12.84371322	      0.00000000	      0.00000000	    -19.20959326	      4.30979779	     -1.19418927
      2.06000000	     -0.31777379	     -1.72328250	      6.64137726	     -0.02313531	      1.00327526	      0.07252992	     -0.14744807	      5.47339689	    -18.86051277	     -7.34181342	     12.78627110	      0.00000000	      0.00000000	     28.45884235	     -6.05327631	     -6.37173521	    -41.96400113	     11.96148391	      0.00000000	      0.00000000	    -19.13308990	      4.28464839	     -1.05559520
      2.07000000	     -0.50519354	     -2.06696598	      6.65306992	     -0.02364473	      1.00199345	      0.07252019	     -0.34540687	      5.89162684	    -18.77799729	     -7.36080113	     13.08344538	      0.00000000	      0.00000000	     28.61436499	     -6.29329512	     -6.35819806	    -38.89877137	     11.63667025	      0.00000000	      0.00000000	    -18.92844356	      4.64558737	     -0.96474530
      2.08000000	     -0.70962051	     -1.93560768	      6.49012809	     -0.02408100	      1.00096060	      0.07272722	     -0.55446258	      5.78746651	    -18.64063862	     -7.43492617	     13.44128452	      0.00000000	      0.00000000	     28.40029449	     -6.13313407	     -6.84155050	    -35.28134619	     10.49994480	      0.00000000	      0.00000000	    -18.78247556	      4.39752360	     -0.88154981
      2.09000000	     -0.84885178	     -1.99868121	      6.36571437	     -0.02440058	      0.99979392	      0.07270330	     -0.79188137	      5.88029239	    -18.48695661	     -7.58178850	     13.87399196	      0.00000000	      0.00000000	     28.13266302	     -6.09947633	     -7.12552213	    -31.66928105	      9.86540603	      0.00000000	      0.00000000	    -18.67494097	      4.40574527	     -0.79043183
      2.10000000	     -1.03921663	     -2.10779600	      6.26562011	     -0.02459157	      0.99843918	      0.07254242	     -0.99656960	      6.01704778	    -18.34870888	     -7.68689294	     14.27526301	      0.00000000	      0.00000000	     27.85532728	     -6.06570260	     -7.38399680	    -27.94064981	      9.27648749	      0.00000000	      0.00000000	    -18.49178996	      4.46819590	     -0.72636999
      2.11000000	     -1.29830782	     -2.60903633	      6.29481311	     -0.02470623	      0.99656889	      0.07212759	     -1.12378006	      6.57801452	    -18.24989290	     -7.72332866	     14.63942142	      0.00000000	      0.00000000	     27.91936769	     -6.32810350	     -7.17881772	    -24.65076657	      9.39996821	      0.00000000	      0.00000000	    -18.15931492	      5.00058639	     -0.66492765
